<svg width="1000" height="1000" viewBox="0 0 1000 1000" xmlns="http://www.w3.org/2000/svg"><defs/><path fill="#c3cea1" transform="matrix(0.3200599421374675 0 0 0.3200599421374675 3.912071596589691 -91.46054740200901)" d="M 924.48572278738 1816.26880035671 L 860.18572278738 1818.16880035671 C 855.68572278738 1787.46880035671 844.08572278738 1758.06880035671 825.78572278738 1731.86880035671 C 794.78572278738 1687.36880035671 748.28572278738 1657.66880035671 694.98572278738 1648.16880035671 C 641.68572278738 1638.66880035671 587.78572278738 1650.46880035671 543.28572278738 1681.46880035671 C 479.58572278738 1725.86880035671 446.48572278738 1804.16880035671 459.08572278738 1880.86880035671 C 463.98572278738 1910.86880035671 475.38572278738 1938.86880035671 492.88572278738 1964.06880035671 C 523.88572278738 2008.56880035671 570.38572278738 2038.26880035671 623.68572278738 2047.76880035671 C 635.68572278738 2049.96880035671 647.78572278738 2050.96880035671 659.78572278738 2050.96880035671 C 700.88572278738 2050.96880035671 740.98572278738 2038.46880035671 775.38572278738 2014.46880035671 C 819.88572278738 1983.46880035671 849.58572278738 1936.96880035671 859.08572278738 1883.66880035671 C 860.58572278738 1875.06880035671 861.58572278738 1866.46880035671 861.98572278738 1857.86880035671 L 925.68572278738 1855.96880035671 C 936.68572278738 1855.66880035671 945.28572278738 1846.46880035671 944.88572278738 1835.56880035671 C 944.48572278738 1824.66880035671 935.48572278738 1815.96880035671 924.48572278738 1816.26880035671 Z M 830.48572278738 1878.56880035671 C 822.28572278738 1924.26880035671 796.88572278738 1964.06880035671 758.78572278738 1990.66880035671 C 720.68572278738 2017.26880035671 674.48572278738 2027.36880035671 628.78572278738 2019.16880035671 C 583.08572278738 2010.96880035671 543.28572278738 1985.56880035671 516.68572278738 1947.46880035671 C 501.68572278738 1925.96880035671 491.88572278738 1901.96880035671 487.68572278738 1876.26880035671 C 476.98572278738 1810.56880035671 505.28572278738 1743.46880035671 559.88572278738 1705.46880035671 C 589.38572278738 1684.86880035671 623.68572278738 1674.16880035671 658.88572278738 1674.16880035671 C 669.18572278738 1674.16880035671 679.48572278738 1675.06880035671 689.78572278738 1676.96880035671 C 735.48572278738 1685.16880035671 775.28572278738 1710.56880035671 801.88572278738 1748.66880035671 C 828.58572278738 1786.66880035671 838.68572278738 1832.76880035671 830.48572278738 1878.56880035671 Z"/><path fill="#606c38" transform="matrix(0.3200599421374675 0 0 0.3200599421374675 3.912071596589691 -91.46054740200901)" d="M 502.48572278738 1873.76880035671 C 492.88572278738 1815.26880035671 516.58572278738 1753.66880035671 568.48572278738 1717.56880035671 C 640.48572278738 1667.36880035671 739.58572278738 1685.06880035671 789.88572278738 1757.06880035671 C 840.18572278738 1829.06880035671 822.38572278738 1928.16880035671 750.38572278738 1978.46880035671 C 678.38572278738 2028.76880035671 579.18572278738 2010.96880035671 528.88572278738 1938.86880035671 C 514.88572278738 1918.76880035671 506.18572278738 1896.46880035671 502.48572278738 1873.76880035671"/><g opacity="0.1" transform="matrix(0.3200599421374675 0 0 0.3200599421374675 3.912071596589691 -91.46054740200901)"><path fill="#ffffff" d="M 483.08572278738 1879.36880035671 C 474.28572278738 1825.36880035671 496.08572278738 1768.46880035671 544.08572278738 1735.06880035671 C 610.58572278738 1688.66880035671 702.08572278738 1705.06880035671 748.48572278738 1771.56880035671 C 794.88572278738 1838.06880035671 778.48572278738 1929.56880035671 711.98572278738 1975.96880035671 C 645.48572278738 2022.36880035671 553.98572278738 2005.96880035671 507.58572278738 1939.46880035671 C 494.58572278738 1920.96880035671 486.48572278738 1900.36880035671 483.08572278738 1879.36880035671"/></g><path fill="#ffffff" transform="matrix(0.3200599421374675 0 0 0.3200599421374675 3.912071596589691 -91.46054740200901)" d="M 601.08572278738 2027.16880035671 C 584.48572278738 2022.76880035671 568.38572278738 2015.86880035671 553.68572278738 2006.46880035671 C 539.08572278738 1997.16880035671 525.68572278738 1985.66880035671 514.38572278738 1972.36880035671 C 508.78572278738 1965.66880035671 503.48572278738 1958.76880035671 498.88572278738 1951.36880035671 C 494.28572278738 1943.96880035671 490.08572278738 1936.36880035671 486.68572278738 1928.36880035671 C 483.18572278738 1920.46880035671 480.28572278738 1912.16880035671 478.08572278738 1903.86880035671 C 475.98572278738 1895.46880035671 474.28572278738 1886.96880035671 473.38572278738 1878.46880035671 C 477.18572278738 1895.26880035671 482.88572278738 1911.36880035671 490.38572278738 1926.66880035671 C 497.98572278738 1941.86880035671 507.38572278738 1956.16880035671 518.38572278738 1968.96880035671 C 523.88572278738 1975.46880035671 529.78572278738 1981.56880035671 536.08572278738 1987.16880035671 C 542.38572278738 1992.86880035671 548.98572278738 1998.06880035671 555.98572278738 2003.06880035671 C 569.98572278738 2012.76880035671 585.08572278738 2020.76880035671 601.08572278738 2027.16880035671 Z"/><path fill="#ffffff" transform="matrix(0.3200599421374675 0 0 0.3200599421374675 3.912071596589691 -91.46054740200901)" d="M 738.48572278738 1975.96880035671 C 719.48572278738 1991.46880035671 694.88572278738 2000.46880035671 670.08572278738 2001.66880035671 C 663.88572278738 2001.86880035671 657.68572278738 2001.86880035671 651.48572278738 2001.16880035671 C 645.28572278738 2000.46880035671 639.18572278738 1999.46880035671 633.18572278738 1997.86880035671 C 621.18572278738 1994.76880035671 609.68572278738 1989.86880035671 599.48572278738 1983.06880035671 C 610.78572278738 1987.86880035671 622.28572278738 1991.56880035671 634.08572278738 1993.86880035671 C 645.88572278738 1996.06880035671 657.88572278738 1996.96880035671 669.88572278738 1996.36880035671 C 681.88572278738 1995.86880035671 693.68572278738 1993.66880035671 705.18572278738 1990.26880035671 C 716.68572278738 1986.76880035671 727.78572278738 1981.86880035671 738.48572278738 1975.96880035671 Z"/><path fill="#ffffff" transform="matrix(0.3200599421374675 0 0 0.3200599421374675 3.912071596589691 -91.46054740200901)" d="M 675.28572278738 1660.26880035671 C 702.78572278738 1661.56880035671 730.28572278738 1669.36880035671 754.48572278738 1683.06880035671 C 766.68572278738 1689.76880035671 777.98572278738 1698.06880035671 788.38572278738 1707.36880035671 C 798.68572278738 1716.76880035671 807.98572278738 1727.36880035671 815.98572278738 1738.76880035671 C 823.88572278738 1750.26880035671 830.68572278738 1762.56880035671 835.88572278738 1775.56880035671 C 841.08572278738 1788.56880035671 844.88572278738 1802.06880035671 846.98572278738 1815.76880035671 C 851.38572278738 1843.26880035671 849.18572278738 1871.66880035671 840.88572278738 1897.96880035671 C 847.18572278738 1871.16880035671 847.88572278738 1843.26880035671 842.88572278738 1816.46880035671 C 837.88572278738 1789.66880035671 827.18572278738 1764.06880035671 811.58572278738 1741.76880035671 C 796.08572278738 1719.46880035671 775.78572278738 1700.56880035671 752.38572278738 1686.56880035671 C 729.08572278738 1672.66880035671 702.68572278738 1663.56880035671 675.28572278738 1660.26880035671 Z"/><path fill="#ffffff" transform="matrix(0.3200599421374675 0 0 0.3200599421374675 3.912071596589691 -91.46054740200901)" d="M 652.38572278738 1787.16880035671 C 651.68572278738 1778.56880035671 652.48572278738 1769.76880035671 654.48572278738 1761.36880035671 C 656.18572278738 1754.36880035671 658.98572278738 1747.36880035671 664.18572278738 1742.26880035671 C 669.38572278738 1737.16880035671 677.28572278738 1734.46880035671 683.98572278738 1736.96880035671 C 690.58572278738 1739.36880035671 694.88572278738 1746.26880035671 695.88572278738 1753.26880035671 C 696.98572278738 1760.26880035671 695.38572278738 1767.36880035671 693.38572278738 1774.16880035671 C 690.68572278738 1783.36880035671 687.18572278738 1792.56880035671 681.28572278738 1800.16880035671 C 677.28572278738 1805.26880035671 672.38572278738 1809.56880035671 668.48572278738 1814.66880035671 C 661.08572278738 1824.36880035671 657.88572278738 1837.16880035671 659.78572278738 1849.16880035671 C 654.38572278738 1834.26880035671 648.48572278738 1818.56880035671 636.38572278738 1808.36880035671 C 633.78572278738 1806.16880035671 630.98572278738 1804.36880035671 628.58572278738 1801.96880035671 C 626.58572278738 1799.96880035671 624.88572278738 1797.56880035671 623.48572278738 1795.06880035671 C 615.98572278738 1782.16880035671 614.18572278738 1766.16880035671 618.68572278738 1751.96880035671 C 619.98572278738 1747.96880035671 621.88572278738 1743.96880035671 625.18572278738 1741.46880035671 C 628.58572278738 1738.96880035671 633.68572278738 1738.36880035671 636.78572278738 1741.26880035671 C 638.68572278738 1743.06880035671 639.58572278738 1745.66880035671 640.28572278738 1748.16880035671 C 644.08572278738 1761.26880035671 647.98572278738 1774.46880035671 651.78572278738 1787.56880035671"/><path fill="#ffffff" transform="matrix(0.3200599421374675 0 0 0.3200599421374675 3.912071596589691 -91.46054740200901)" d="M 595.28572278738 1788.46880035671 C 588.48572278738 1792.96880035671 586.08572278738 1801.76880035671 584.68572278738 1809.76880035671 C 582.28572278738 1823.16880035671 580.98572278738 1837.36880035671 585.88572278738 1850.16880035671 C 590.98572278738 1863.76880035671 602.48572278738 1873.96880035671 614.78572278738 1881.66880035671 C 624.18572278738 1887.56880035671 634.28572278738 1892.36880035671 644.88572278738 1895.96880035671 C 648.88572278738 1897.26880035671 653.18572278738 1898.66880035671 655.88572278738 1901.86880035671 C 660.78572278738 1907.76880035671 661.58572278738 1923.96880035671 661.58572278738 1923.96880035671 C 661.58572278738 1923.96880035671 663.48572278738 1896.76880035671 674.38572278738 1889.46880035671 C 679.28572278738 1886.16880035671 684.88572278738 1884.36880035671 690.28572278738 1881.96880035671 C 706.18572278738 1874.86880035671 719.58572278738 1862.06880035671 726.68572278738 1846.16880035671 C 733.78572278738 1830.26880035671 734.18572278738 1811.26880035671 726.78572278738 1795.56880035671 C 725.38572278738 1792.46880035671 723.08572278738 1789.16880035671 719.68572278738 1788.96880035671 C 717.98572278738 1788.86880035671 716.38572278738 1789.56880035671 715.08572278738 1790.66880035671 C 712.48572278738 1792.86880035671 711.48572278738 1796.46880035671 710.08572278738 1799.56880035671 C 702.58572278738 1817.66880035671 682.78572278738 1827.36880035671 671.38572278738 1843.26880035671 C 662.68572278738 1855.46880035671 659.18572278738 1871.26880035671 662.18572278738 1885.96880035671 C 649.58572278738 1868.66880035671 655.18572278738 1844.86880035671 636.78572278738 1830.86880035671 C 623.28572278738 1820.56880035671 612.88572278738 1809.56880035671 604.28572278738 1794.66880035671 C 600.68572278738 1788.46880035671 595.28572278738 1788.46880035671 595.28572278738 1788.46880035671 Z"/><path fill="#ffffff" transform="matrix(0.3200599421374675 0 0 0.3200599421374675 3.912071596589691 -91.46054740200901)" d="M 741.28572278738 1757.76880035671 C 760.18572278738 1781.16880035671 775.28572278738 1810.26880035671 775.88572278738 1840.96880035671 C 776.48572278738 1870.66880035671 761.38572278738 1896.76880035671 739.98572278738 1916.46880035671 C 729.18572278738 1926.36880035671 717.08572278738 1934.66880035671 704.38572278738 1941.96880035671 C 691.38572278738 1949.36880035671 675.28572278738 1959.96880035671 659.88572278738 1959.86880035671 C 639.18572278738 1959.76880035671 614.88572278738 1950.76880035671 596.48572278738 1941.56880035671 C 577.88572278738 1932.26880035671 561.38572278738 1918.56880035671 551.98572278738 1899.76880035671 C 536.68572278738 1869.26880035671 542.38572278738 1833.06880035671 553.88572278738 1802.26880035671 C 557.38572278738 1792.86880035671 561.58572278738 1783.56880035671 566.28572278738 1774.66880035671 C 567.48572278738 1772.26880035671 571.08572278738 1773.46880035671 570.68572278738 1776.06880035671 C 565.28572278738 1814.76880035671 571.68572278738 1857.06880035671 597.48572278738 1887.76880035671 C 605.08572278738 1896.76880035671 614.18572278738 1904.56880035671 624.18572278738 1910.96880035671 C 629.88572278738 1914.56880035671 635.78572278738 1917.76880035671 641.98572278738 1920.46880035671 C 652.78572278738 1925.36880035671 659.78572278738 1930.06880035671 670.68572278738 1922.26880035671 C 696.68572278738 1903.66880035671 721.88572278738 1883.66880035671 735.38572278738 1853.76880035671 C 744.88572278738 1832.76880035671 747.78572278738 1809.36880035671 744.38572278738 1786.56880035671 C 743.68572278738 1781.56880035671 742.58572278738 1776.56880035671 741.28572278738 1771.56880035671 C 740.38572278738 1768.16880035671 737.48572278738 1763.16880035671 737.48572278738 1759.66880035671 C 736.78572278738 1757.56880035671 739.78572278738 1755.86880035671 741.28572278738 1757.76880035671 Z"/><g opacity="0.27" transform="matrix(0.3200599421374675 0 0 0.3200599421374675 3.912071596589691 -91.46054740200901)"><path d="M 657.18572278738 1707.06880035671 C 676.18572278738 1703.66880035671 696.38572278738 1705.36880035671 715.18572278738 1711.86880035671 C 724.58572278738 1715.06880035671 733.68572278738 1719.46880035671 742.18572278738 1724.76880035671 C 750.68572278738 1730.06880035671 758.48572278738 1736.56880035671 765.48572278738 1743.66880035671 C 779.68572278738 1757.96880035671 790.28572278738 1775.56880035671 796.48572278738 1794.46880035671 C 802.58572278738 1813.36880035671 804.18572278738 1833.66880035671 800.28572278738 1852.56880035671 C 797.58572278738 1833.46880035671 792.68572278738 1815.46880035671 784.88572278738 1798.96880035671 C 777.18572278738 1782.46880035671 766.78572278738 1767.46880035671 754.18572278738 1754.76880035671 C 747.88572278738 1748.36880035671 741.08572278738 1742.46880035671 733.78572278738 1737.26880035671 C 726.48572278738 1732.06880035671 718.68572278738 1727.46880035671 710.48572278738 1723.46880035671 C 694.08572278738 1715.26880035671 676.18572278738 1710.26880035671 657.18572278738 1707.06880035671 Z"/></g><path id="text" fill="#fefaea" transform="matrix(0.28651994216855614 0 0 0.28651994216855614 169.19568050181545 -70.07995928291467)" d="M 521.58695502004 1900.11739253235 L 521.58695502004 1919.70139253235 L 544.62695502004 1919.70139253235 L 544.62695502004 1928.62939253235 L 521.58695502004 1928.62939253235 L 521.58695502004 1949.07739253235 L 547.50695502004 1949.07739253235 L 547.50695502004 1958.00539253235 L 510.64295502004 1958.00539253235 L 510.64295502004 1891.18939253235 L 547.50695502004 1891.18939253235 L 547.50695502004 1900.11739253235 L 521.58695502004 1900.11739253235 Z M 558.16295502004 1943.41339253235 L 558.16295502004 1935.15739253235 L 590.41895502004 1888.88539253235 L 603.66695502004 1888.88539253235 L 603.66695502004 1933.90939253235 L 612.59495502004 1933.90939253235 L 612.59495502004 1943.41339253235 L 603.66695502004 1943.41339253235 L 603.66695502004 1958.00539253235 L 592.91495502004 1958.00539253235 L 592.91495502004 1943.41339253235 L 558.16295502004 1943.41339253235 Z M 593.39495502004 1900.02139253235 L 570.73895502004 1933.90939253235 L 593.39495502004 1933.90939253235 L 593.39495502004 1900.02139253235 Z"/><path id="text" fill="#fefaea" transform="matrix(0.28651994216855614 0 0 0.28651994216855614 170.3234229941909 -32.323507383711025)" d="M 552.01895502004 1891.09339253235 L 552.01895502004 1898.19739253235 L 533.77895502004 1898.19739253235 L 533.77895502004 1958.00539253235 L 525.04295502004 1958.00539253235 L 525.04295502004 1898.19739253235 L 506.70695502004 1898.19739253235 L 506.70695502004 1891.09339253235 L 552.01895502004 1891.09339253235 Z M 619.12295502004 1891.09339253235 L 619.12295502004 1958.00539253235 L 610.38695502004 1958.00539253235 L 610.38695502004 1927.66939253235 L 576.30695502004 1927.66939253235 L 576.30695502004 1958.00539253235 L 567.57095502004 1958.00539253235 L 567.57095502004 1891.09339253235 L 576.30695502004 1891.09339253235 L 576.30695502004 1920.46939253235 L 610.38695502004 1920.46939253235 L 610.38695502004 1891.09339253235 L 619.12295502004 1891.09339253235 Z M 647.53895502004 1898.19739253235 L 647.53895502004 1920.56539253235 L 671.92295502004 1920.56539253235 L 671.92295502004 1927.76539253235 L 647.53895502004 1927.76539253235 L 647.53895502004 1950.80539253235 L 674.80295502004 1950.80539253235 L 674.80295502004 1958.00539253235 L 638.80295502004 1958.00539253235 L 638.80295502004 1890.99739253235 L 674.80295502004 1890.99739253235 L 674.80295502004 1898.19739253235 L 647.53895502004 1898.19739253235 Z M 762.30695502004 1924.54939253235 C 758.49895502005 1928.22939253235 752.69095502004 1930.06939253235 744.88295502004 1930.06939253235 L 732.01895502005 1930.06939253235 L 732.01895502005 1958.00539253235 L 723.28295502005 1958.00539253235 L 723.28295502005 1891.09339253235 L 744.88295502004 1891.09339253235 C 752.43495502004 1891.09339253235 758.17895502004 1892.91739253235 762.11495502005 1896.56539253235 C 766.05095502005 1900.21339253235 768.01895502005 1904.91739253235 768.01895502005 1910.67739253235 C 768.01895502005 1916.24539253235 766.11495502005 1920.86939253235 762.30695502004 1924.54939253235 Z M 755.63495502004 1919.70139253235 C 757.93895502004 1917.58939253235 759.09095502005 1914.58139253235 759.09095502005 1910.67739253235 C 759.09095502005 1902.42139253235 754.35495502005 1898.29339253235 744.88295502004 1898.29339253235 L 732.01895502005 1898.29339253235 L 732.01895502005 1922.86939253235 L 744.88295502004 1922.86939253235 C 749.74695502004 1922.86939253235 753.33095502005 1921.81339253235 755.63495502004 1919.70139253235 Z M 792.40295502004 1898.19739253235 L 792.40295502004 1920.56539253235 L 816.78695502004 1920.56539253235 L 816.78695502004 1927.76539253235 L 792.40295502004 1927.76539253235 L 792.40295502004 1950.80539253235 L 819.66695502005 1950.80539253235 L 819.66695502005 1958.00539253235 L 783.66695502005 1958.00539253235 L 783.66695502005 1890.99739253235 L 819.66695502005 1890.99739253235 L 819.66695502005 1898.19739253235 L 792.40295502004 1898.19739253235 Z M 872.94695502005 1958.00539253235 L 857.01095502004 1930.64539253235 L 846.45095502004 1930.64539253235 L 846.45095502004 1958.00539253235 L 837.71495502005 1958.00539253235 L 837.71495502005 1891.09339253235 L 859.31495502004 1891.09339253235 C 864.37095502004 1891.09339253235 868.64295502004 1891.95739253235 872.13095502004 1893.68539253235 C 875.61895502005 1895.41339253235 878.22695502004 1897.74939253235 879.95495502005 1900.69339253235 C 881.68295502004 1903.63739253235 882.54695502004 1906.99739253235 882.54695502004 1910.77339253235 C 882.54695502004 1915.38139253235 881.21895502004 1919.44539253235 878.56295502004 1922.96539253235 C 875.90695502005 1926.48539253235 871.92295502005 1928.82139253235 866.61095502004 1929.97339253235 L 883.41095502004 1958.00539253235 L 872.94695502005 1958.00539253235 Z M 846.45095502004 1923.63739253235 L 859.31495502004 1923.63739253235 C 864.05095502005 1923.63739253235 867.60295502004 1922.46939253235 869.97095502005 1920.13339253235 C 872.33895502005 1917.79739253235 873.52295502005 1914.67739253235 873.52295502005 1910.77339253235 C 873.52295502005 1906.80539253235 872.35495502004 1903.73339253235 870.01895502005 1901.55739253235 C 867.68295502004 1899.38139253235 864.11495502005 1898.29339253235 859.31495502004 1898.29339253235 L 846.45095502004 1898.29339253235 L 846.45095502004 1923.63739253235 Z M 938.70695502004 1891.09339253235 L 938.70695502004 1898.19739253235 L 909.61895502005 1898.19739253235 L 909.61895502005 1920.75739253235 L 933.23495502005 1920.75739253235 L 933.23495502005 1927.86139253235 L 909.61895502005 1927.86139253235 L 909.61895502005 1958.00539253235 L 900.88295502004 1958.00539253235 L 900.88295502004 1891.09339253235 L 938.70695502004 1891.09339253235 Z M 962.80295502004 1898.19739253235 L 962.80295502004 1920.56539253235 L 987.18695502005 1920.56539253235 L 987.18695502005 1927.76539253235 L 962.80295502004 1927.76539253235 L 962.80295502004 1950.80539253235 L 990.06695502005 1950.80539253235 L 990.06695502005 1958.00539253235 L 954.06695502005 1958.00539253235 L 954.06695502005 1890.99739253235 L 990.06695502005 1890.99739253235 L 990.06695502005 1898.19739253235 L 962.80295502004 1898.19739253235 Z M 1009.26695502004 1906.88539253235 C 1012.21095502004 1901.66939253235 1016.22695502004 1897.58939253235 1021.31495502004 1894.64539253235 C 1026.40295502004 1891.70139253235 1032.05095502005 1890.22939253235 1038.25895502005 1890.22939253235 C 1045.55495502004 1890.22939253235 1051.92295502004 1891.98939253235 1057.36295502004 1895.50939253235 C 1062.80295502004 1899.02939253235 1066.77095502004 1904.02139253235 1069.26695502004 1910.48539253235 L 1058.80295502004 1910.48539253235 C 1056.94695502005 1906.45339253235 1054.27495502004 1903.34939253235 1050.78695502004 1901.17339253235 C 1047.29895502005 1898.99739253235 1043.12295502004 1897.90939253235 1038.25895502005 1897.90939253235 C 1033.58695502005 1897.90939253235 1029.39495502005 1898.99739253235 1025.68295502005 1901.17339253235 C 1021.97095502005 1903.34939253235 1019.05895502004 1906.43739253235 1016.94695502005 1910.43739253235 C 1014.83495502004 1914.43739253235 1013.77895502004 1919.12539253235 1013.77895502004 1924.50139253235 C 1013.77895502004 1929.81339253235 1014.83495502004 1934.46939253235 1016.94695502005 1938.46939253235 C 1019.05895502004 1942.46939253235 1021.97095502005 1945.55739253235 1025.68295502005 1947.73339253235 C 1029.39495502005 1949.90939253235 1033.58695502005 1950.99739253235 1038.25895502005 1950.99739253235 C 1043.12295502004 1950.99739253235 1047.29895502005 1949.92539253235 1050.78695502004 1947.78139253235 C 1054.27495502004 1945.63739253235 1056.94695502005 1942.54939253235 1058.80295502004 1938.51739253235 L 1069.26695502004 1938.51739253235 C 1066.77095502004 1944.91739253235 1062.80295502004 1949.86139253235 1057.36295502004 1953.34939253235 C 1051.92295502004 1956.83739253235 1045.55495502004 1958.58139253235 1038.25895502005 1958.58139253235 C 1032.05095502005 1958.58139253235 1026.40295502004 1957.12539253235 1021.31495502004 1954.21339253235 C 1016.22695502004 1951.30139253235 1012.21095502004 1947.25339253235 1009.26695502004 1942.06939253235 C 1006.32295502004 1936.88539253235 1004.85095502004 1931.02939253235 1004.85095502004 1924.50139253235 C 1004.85095502004 1917.97339253235 1006.32295502004 1912.10139253235 1009.26695502004 1906.88539253235 Z M 1128.21095502004 1891.09339253235 L 1128.21095502004 1898.19739253235 L 1109.97095502005 1898.19739253235 L 1109.97095502005 1958.00539253235 L 1101.23495502005 1958.00539253235 L 1101.23495502005 1898.19739253235 L 1082.89895502005 1898.19739253235 L 1082.89895502005 1891.09339253235 L 1128.21095502004 1891.09339253235 Z M 1187.53895502004 1954.30939253235 C 1182.41895502004 1951.39739253235 1178.37095502004 1947.33339253235 1175.39495502005 1942.11739253235 C 1172.41895502004 1936.90139253235 1170.93095502005 1931.02939253235 1170.93095502005 1924.50139253235 C 1170.93095502005 1917.97339253235 1172.41895502004 1912.10139253235 1175.39495502005 1906.88539253235 C 1178.37095502004 1901.66939253235 1182.41895502004 1897.60539253235 1187.53895502004 1894.69339253235 C 1192.65895502004 1891.78139253235 1198.32295502004 1890.32539253235 1204.53095502005 1890.32539253235 C 1210.80295502004 1890.32539253235 1216.49895502004 1891.78139253235 1221.61895502005 1894.69339253235 C 1226.73895502005 1897.60539253235 1230.77095502004 1901.65339253235 1233.71495502005 1906.83739253235 C 1236.65895502004 1912.02139253235 1238.13095502004 1917.90939253235 1238.13095502004 1924.50139253235 C 1238.13095502004 1931.09339253235 1236.65895502004 1936.98139253235 1233.71495502005 1942.16539253235 C 1230.77095502004 1947.34939253235 1226.73895502005 1951.39739253235 1221.61895502005 1954.30939253235 C 1216.49895502004 1957.22139253235 1210.80295502004 1958.67739253235 1204.53095502005 1958.67739253235 C 1198.32295502004 1958.67739253235 1192.65895502004 1957.22139253235 1187.53895502004 1954.30939253235 Z M 1217.15495502004 1947.82939253235 C 1220.89895502005 1945.65339253235 1223.84295502004 1942.54939253235 1225.98695502004 1938.51739253235 C 1228.13095502004 1934.48539253235 1229.20295502005 1929.81339253235 1229.20295502005 1924.50139253235 C 1229.20295502005 1919.12539253235 1228.13095502004 1914.43739253235 1225.98695502004 1910.43739253235 C 1223.84295502004 1906.43739253235 1220.91495502005 1903.34939253235 1217.20295502005 1901.17339253235 C 1213.49095502005 1898.99739253235 1209.26695502004 1897.90939253235 1204.53095502005 1897.90939253235 C 1199.79495502004 1897.90939253235 1195.57095502005 1898.99739253235 1191.85895502005 1901.17339253235 C 1188.14695502005 1903.34939253235 1185.21895502004 1906.43739253235 1183.07495502004 1910.43739253235 C 1180.93095502005 1914.43739253235 1179.85895502005 1919.12539253235 1179.85895502005 1924.50139253235 C 1179.85895502005 1929.81339253235 1180.93095502005 1934.48539253235 1183.07495502004 1938.51739253235 C 1185.21895502004 1942.54939253235 1188.16295502005 1945.65339253235 1191.90695502005 1947.82939253235 C 1195.65095502004 1950.00539253235 1199.85895502005 1951.09339253235 1204.53095502005 1951.09339253235 C 1209.20295502005 1951.09339253235 1213.41095502004 1950.00539253235 1217.15495502004 1947.82939253235 Z M 1293.47495502005 1924.54939253235 C 1289.66695502005 1928.22939253235 1283.85895502005 1930.06939253235 1276.05095502005 1930.06939253235 L 1263.18695502005 1930.06939253235 L 1263.18695502005 1958.00539253235 L 1254.45095502005 1958.00539253235 L 1254.45095502005 1891.09339253235 L 1276.05095502005 1891.09339253235 C 1283.60295502004 1891.09339253235 1289.34695502004 1892.91739253235 1293.28295502005 1896.56539253235 C 1297.21895502004 1900.21339253235 1299.18695502005 1904.91739253235 1299.18695502005 1910.67739253235 C 1299.18695502005 1916.24539253235 1297.28295502005 1920.86939253235 1293.47495502005 1924.54939253235 Z M 1286.80295502004 1919.70139253235 C 1289.10695502005 1917.58939253235 1290.25895502005 1914.58139253235 1290.25895502005 1910.67739253235 C 1290.25895502005 1902.42139253235 1285.52295502005 1898.29339253235 1276.05095502005 1898.29339253235 L 1263.18695502005 1898.29339253235 L 1263.18695502005 1922.86939253235 L 1276.05095502005 1922.86939253235 C 1280.91495502005 1922.86939253235 1284.49895502004 1921.81339253235 1286.80295502004 1919.70139253235 Z M 1323.57095502005 1898.19739253235 L 1323.57095502005 1920.56539253235 L 1347.95495502005 1920.56539253235 L 1347.95495502005 1927.76539253235 L 1323.57095502005 1927.76539253235 L 1323.57095502005 1950.80539253235 L 1350.83495502005 1950.80539253235 L 1350.83495502005 1958.00539253235 L 1314.83495502005 1958.00539253235 L 1314.83495502005 1890.99739253235 L 1350.83495502005 1890.99739253235 L 1350.83495502005 1898.19739253235 L 1323.57095502005 1898.19739253235 Z M 1421.49095502005 1958.00539253235 L 1412.75495502005 1958.00539253235 L 1377.61895502005 1904.72539253235 L 1377.61895502005 1958.00539253235 L 1368.88295502004 1958.00539253235 L 1368.88295502004 1890.99739253235 L 1377.61895502005 1890.99739253235 L 1412.75495502005 1944.18139253235 L 1412.75495502005 1890.99739253235 L 1421.49095502005 1890.99739253235 L 1421.49095502005 1958.00539253235 Z M 1449.90695502005 1891.09339253235 L 1449.90695502005 1958.00539253235 L 1441.17095502005 1958.00539253235 L 1441.17095502005 1891.09339253235 L 1449.90695502005 1891.09339253235 Z M 1522.19495502004 1958.00539253235 L 1513.45895502005 1958.00539253235 L 1478.32295502005 1904.72539253235 L 1478.32295502005 1958.00539253235 L 1469.58695502005 1958.00539253235 L 1469.58695502005 1890.99739253235 L 1478.32295502005 1890.99739253235 L 1513.45895502005 1944.18139253235 L 1513.45895502005 1890.99739253235 L 1522.19495502004 1890.99739253235 L 1522.19495502004 1958.00539253235 Z M 1592.56295502004 1910.48539253235 C 1590.70695502005 1906.58139253235 1588.01895502004 1903.55739253235 1584.49895502004 1901.41339253235 C 1580.97895502005 1899.26939253235 1576.88295502005 1898.19739253235 1572.21095502004 1898.19739253235 C 1567.53895502004 1898.19739253235 1563.33095502004 1899.26939253235 1559.58695502005 1901.41339253235 C 1555.84295502005 1903.55739253235 1552.89895502005 1906.62939253235 1550.75495502004 1910.62939253235 C 1548.61095502005 1914.62939253235 1547.53895502004 1919.25339253235 1547.53895502004 1924.50139253235 C 1547.53895502004 1929.74939253235 1548.61095502005 1934.35739253235 1550.75495502004 1938.32539253235 C 1552.89895502005 1942.29339253235 1555.84295502005 1945.34939253235 1559.58695502005 1947.49339253235 C 1563.33095502004 1949.63739253235 1567.53895502004 1950.70939253235 1572.21095502004 1950.70939253235 C 1578.73895502005 1950.70939253235 1584.11495502004 1948.75739253235 1588.33895502005 1944.85339253235 C 1592.56295502004 1940.94939253235 1595.02695502005 1935.66939253235 1595.73095502004 1929.01339253235 L 1569.04295502004 1929.01339253235 L 1569.04295502004 1921.90939253235 L 1605.04295502004 1921.90939253235 L 1605.04295502004 1928.62939253235 C 1604.53095502005 1934.13339253235 1602.80295502005 1939.17339253235 1599.85895502005 1943.74939253235 C 1596.91495502005 1948.32539253235 1593.04295502004 1951.94139253235 1588.24295502005 1954.59739253235 C 1583.44295502004 1957.25339253235 1578.09895502004 1958.58139253235 1572.21095502004 1958.58139253235 C 1566.00295502004 1958.58139253235 1560.33895502005 1957.12539253235 1555.21895502005 1954.21339253235 C 1550.09895502004 1951.30139253235 1546.05095502005 1947.25339253235 1543.07495502005 1942.06939253235 C 1540.09895502004 1936.88539253235 1538.61095502005 1931.02939253235 1538.61095502005 1924.50139253235 C 1538.61095502005 1917.97339253235 1540.09895502004 1912.10139253235 1543.07495502005 1906.88539253235 C 1546.05095502005 1901.66939253235 1550.09895502004 1897.60539253235 1555.21895502005 1894.69339253235 C 1560.33895502005 1891.78139253235 1566.00295502004 1890.32539253235 1572.21095502004 1890.32539253235 C 1579.31495502005 1890.32539253235 1585.60295502005 1892.08539253235 1591.07495502005 1895.60539253235 C 1596.54695502005 1899.12539253235 1600.53095502005 1904.08539253235 1603.02695502005 1910.48539253235 L 1592.56295502004 1910.48539253235 Z M 1689.61895502004 1891.09339253235 L 1689.61895502004 1898.19739253235 L 1660.53095502005 1898.19739253235 L 1660.53095502005 1920.75739253235 L 1684.14695502005 1920.75739253235 L 1684.14695502005 1927.86139253235 L 1660.53095502005 1927.86139253235 L 1660.53095502005 1958.00539253235 L 1651.79495502005 1958.00539253235 L 1651.79495502005 1891.09339253235 L 1689.61895502004 1891.09339253235 Z M 1718.32295502005 1954.30939253235 C 1713.20295502005 1951.39739253235 1709.15495502004 1947.33339253235 1706.17895502005 1942.11739253235 C 1703.20295502005 1936.90139253235 1701.71495502004 1931.02939253235 1701.71495502004 1924.50139253235 C 1701.71495502004 1917.97339253235 1703.20295502005 1912.10139253235 1706.17895502005 1906.88539253235 C 1709.15495502004 1901.66939253235 1713.20295502005 1897.60539253235 1718.32295502005 1894.69339253235 C 1723.44295502004 1891.78139253235 1729.10695502005 1890.32539253235 1735.31495502005 1890.32539253235 C 1741.58695502005 1890.32539253235 1747.28295502005 1891.78139253235 1752.40295502004 1894.69339253235 C 1757.52295502004 1897.60539253235 1761.55495502005 1901.65339253235 1764.49895502004 1906.83739253235 C 1767.44295502004 1912.02139253235 1768.91495502005 1917.90939253235 1768.91495502005 1924.50139253235 C 1768.91495502005 1931.09339253235 1767.44295502004 1936.98139253235 1764.49895502004 1942.16539253235 C 1761.55495502005 1947.34939253235 1757.52295502004 1951.39739253235 1752.40295502004 1954.30939253235 C 1747.28295502005 1957.22139253235 1741.58695502005 1958.67739253235 1735.31495502005 1958.67739253235 C 1729.10695502005 1958.67739253235 1723.44295502004 1957.22139253235 1718.32295502005 1954.30939253235 Z M 1747.93895502005 1947.82939253235 C 1751.68295502005 1945.65339253235 1754.62695502005 1942.54939253235 1756.77095502004 1938.51739253235 C 1758.91495502005 1934.48539253235 1759.98695502005 1929.81339253235 1759.98695502005 1924.50139253235 C 1759.98695502005 1919.12539253235 1758.91495502005 1914.43739253235 1756.77095502004 1910.43739253235 C 1754.62695502005 1906.43739253235 1751.69895502005 1903.34939253235 1747.98695502005 1901.17339253235 C 1744.27495502005 1898.99739253235 1740.05095502005 1897.90939253235 1735.31495502005 1897.90939253235 C 1730.57895502004 1897.90939253235 1726.35495502005 1898.99739253235 1722.64295502005 1901.17339253235 C 1718.93095502005 1903.34939253235 1716.00295502004 1906.43739253235 1713.85895502005 1910.43739253235 C 1711.71495502004 1914.43739253235 1710.64295502005 1919.12539253235 1710.64295502005 1924.50139253235 C 1710.64295502005 1929.81339253235 1711.71495502004 1934.48539253235 1713.85895502005 1938.51739253235 C 1716.00295502004 1942.54939253235 1718.94695502004 1945.65339253235 1722.69095502004 1947.82939253235 C 1726.43495502005 1950.00539253235 1730.64295502005 1951.09339253235 1735.31495502005 1951.09339253235 C 1739.98695502005 1951.09339253235 1744.19495502004 1950.00539253235 1747.93895502005 1947.82939253235 Z M 1820.46695502004 1958.00539253235 L 1804.53095502005 1930.64539253235 L 1793.97095502005 1930.64539253235 L 1793.97095502005 1958.00539253235 L 1785.23495502004 1958.00539253235 L 1785.23495502004 1891.09339253235 L 1806.83495502005 1891.09339253235 C 1811.89095502005 1891.09339253235 1816.16295502005 1891.95739253235 1819.65095502005 1893.68539253235 C 1823.13895502004 1895.41339253235 1825.74695502005 1897.74939253235 1827.47495502005 1900.69339253235 C 1829.20295502005 1903.63739253235 1830.06695502005 1906.99739253235 1830.06695502005 1910.77339253235 C 1830.06695502005 1915.38139253235 1828.73895502005 1919.44539253235 1826.08295502005 1922.96539253235 C 1823.42695502004 1926.48539253235 1819.44295502004 1928.82139253235 1814.13095502005 1929.97339253235 L 1830.93095502005 1958.00539253235 L 1820.46695502004 1958.00539253235 Z M 1793.97095502005 1923.63739253235 L 1806.83495502005 1923.63739253235 C 1811.57095502005 1923.63739253235 1815.12295502005 1922.46939253235 1817.49095502005 1920.13339253235 C 1819.85895502005 1917.79739253235 1821.04295502004 1914.67739253235 1821.04295502004 1910.77339253235 C 1821.04295502004 1906.80539253235 1819.87495502005 1903.73339253235 1817.53895502004 1901.55739253235 C 1815.20295502005 1899.38139253235 1811.63495502004 1898.29339253235 1806.83495502005 1898.29339253235 L 1793.97095502005 1898.29339253235 L 1793.97095502005 1923.63739253235 Z M 1925.68295502005 1891.09339253235 L 1903.89095502005 1932.75739253235 L 1903.89095502005 1958.00539253235 L 1895.15495502004 1958.00539253235 L 1895.15495502004 1932.75739253235 L 1873.26695502005 1891.09339253235 L 1882.96295502004 1891.09339253235 L 1899.47495502005 1924.98139253235 L 1915.98695502005 1891.09339253235 L 1925.68295502005 1891.09339253235 Z M 1953.04295502004 1954.30939253235 C 1947.92295502004 1951.39739253235 1943.87495502005 1947.33339253235 1940.89895502005 1942.11739253235 C 1937.92295502004 1936.90139253235 1936.43495502005 1931.02939253235 1936.43495502005 1924.50139253235 C 1936.43495502005 1917.97339253235 1937.92295502004 1912.10139253235 1940.89895502005 1906.88539253235 C 1943.87495502005 1901.66939253235 1947.92295502004 1897.60539253235 1953.04295502004 1894.69339253235 C 1958.16295502005 1891.78139253235 1963.82695502004 1890.32539253235 1970.03495502005 1890.32539253235 C 1976.30695502004 1890.32539253235 1982.00295502004 1891.78139253235 1987.12295502005 1894.69339253235 C 1992.24295502005 1897.60539253235 1996.27495502005 1901.65339253235 1999.21895502005 1906.83739253235 C 2002.16295502005 1912.02139253235 2003.63495502004 1917.90939253235 2003.63495502004 1924.50139253235 C 2003.63495502004 1931.09339253235 2002.16295502005 1936.98139253235 1999.21895502005 1942.16539253235 C 1996.27495502005 1947.34939253235 1992.24295502005 1951.39739253235 1987.12295502005 1954.30939253235 C 1982.00295502004 1957.22139253235 1976.30695502004 1958.67739253235 1970.03495502005 1958.67739253235 C 1963.82695502004 1958.67739253235 1958.16295502005 1957.22139253235 1953.04295502004 1954.30939253235 Z M 1982.65895502004 1947.82939253235 C 1986.40295502004 1945.65339253235 1989.34695502004 1942.54939253235 1991.49095502005 1938.51739253235 C 1993.63495502004 1934.48539253235 1994.70695502005 1929.81339253235 1994.70695502005 1924.50139253235 C 1994.70695502005 1919.12539253235 1993.63495502004 1914.43739253235 1991.49095502005 1910.43739253235 C 1989.34695502004 1906.43739253235 1986.41895502005 1903.34939253235 1982.70695502005 1901.17339253235 C 1978.99495502005 1898.99739253235 1974.77095502004 1897.90939253235 1970.03495502005 1897.90939253235 C 1965.29895502005 1897.90939253235 1961.07495502005 1898.99739253235 1957.36295502005 1901.17339253235 C 1953.65095502005 1903.34939253235 1950.72295502005 1906.43739253235 1948.57895502004 1910.43739253235 C 1946.43495502005 1914.43739253235 1945.36295502005 1919.12539253235 1945.36295502005 1924.50139253235 C 1945.36295502005 1929.81339253235 1946.43495502005 1934.48539253235 1948.57895502004 1938.51739253235 C 1950.72295502005 1942.54939253235 1953.66695502005 1945.65339253235 1957.41095502005 1947.82939253235 C 1961.15495502004 1950.00539253235 1965.36295502005 1951.09339253235 1970.03495502005 1951.09339253235 C 1974.70695502005 1951.09339253235 1978.91495502005 1950.00539253235 1982.65895502004 1947.82939253235 Z M 2028.49895502004 1891.09339253235 L 2028.49895502004 1933.42939253235 C 2028.49895502004 1939.38139253235 2029.95495502005 1943.79739253235 2032.86695502004 1946.67739253235 C 2035.77895502005 1949.55739253235 2039.82695502004 1950.99739253235 2045.01095502005 1950.99739253235 C 2050.13095502005 1950.99739253235 2054.14695502005 1949.55739253235 2057.05895502004 1946.67739253235 C 2059.97095502005 1943.79739253235 2061.42695502004 1939.38139253235 2061.42695502004 1933.42939253235 L 2061.42695502004 1891.09339253235 L 2070.16295502005 1891.09339253235 L 2070.16295502005 1933.33339253235 C 2070.16295502005 1938.90139253235 2069.04295502004 1943.58939253235 2066.80295502005 1947.39739253235 C 2064.56295502004 1951.20539253235 2061.53895502004 1954.03739253235 2057.73095502004 1955.89339253235 C 2053.92295502004 1957.74939253235 2049.65095502005 1958.67739253235 2044.91495502005 1958.67739253235 C 2040.17895502005 1958.67739253235 2035.90695502004 1957.74939253235 2032.09895502004 1955.89339253235 C 2028.29095502004 1954.03739253235 2025.28295502005 1951.20539253235 2023.07495502005 1947.39739253235 C 2020.86695502004 1943.58939253235 2019.76295502005 1938.90139253235 2019.76295502005 1933.33339253235 L 2019.76295502005 1891.09339253235 L 2028.49895502004 1891.09339253235 Z M 2124.78695502004 1958.00539253235 L 2108.85095502004 1930.64539253235 L 2098.29095502004 1930.64539253235 L 2098.29095502004 1958.00539253235 L 2089.55495502005 1958.00539253235 L 2089.55495502005 1891.09339253235 L 2111.15495502004 1891.09339253235 C 2116.21095502004 1891.09339253235 2120.48295502004 1891.95739253235 2123.97095502005 1893.68539253235 C 2127.45895502005 1895.41339253235 2130.06695502005 1897.74939253235 2131.79495502005 1900.69339253235 C 2133.52295502004 1903.63739253235 2134.38695502004 1906.99739253235 2134.38695502004 1910.77339253235 C 2134.38695502004 1915.38139253235 2133.05895502004 1919.44539253235 2130.40295502004 1922.96539253235 C 2127.74695502005 1926.48539253235 2123.76295502005 1928.82139253235 2118.45095502005 1929.97339253235 L 2135.25095502004 1958.00539253235 L 2124.78695502004 1958.00539253235 Z M 2098.29095502004 1923.63739253235 L 2111.15495502004 1923.63739253235 C 2115.89095502005 1923.63739253235 2119.44295502004 1922.46939253235 2121.81095502004 1920.13339253235 C 2124.17895502005 1917.79739253235 2125.36295502005 1914.67739253235 2125.36295502005 1910.77339253235 C 2125.36295502005 1906.80539253235 2124.19495502004 1903.73339253235 2121.85895502005 1901.55739253235 C 2119.52295502004 1899.38139253235 2115.95495502005 1898.29339253235 2111.15495502004 1898.29339253235 L 2098.29095502004 1898.29339253235 L 2098.29095502004 1923.63739253235 Z M 2222.94695502004 1895.17339253235 C 2228.29095502004 1897.89339253235 2232.38695502004 1901.78139253235 2235.23495502004 1906.83739253235 C 2238.08295502005 1911.89339253235 2239.50695502005 1917.84539253235 2239.50695502005 1924.69339253235 C 2239.50695502005 1931.54139253235 2238.08295502005 1937.47739253235 2235.23495502004 1942.50139253235 C 2232.38695502004 1947.52539253235 2228.29095502004 1951.36539253235 2222.94695502004 1954.02139253235 C 2217.60295502005 1956.67739253235 2211.28295502005 1958.00539253235 2203.98695502005 1958.00539253235 L 2183.15495502004 1958.00539253235 L 2183.15495502004 1891.09339253235 L 2203.98695502005 1891.09339253235 C 2211.28295502005 1891.09339253235 2217.60295502005 1892.45339253235 2222.94695502004 1895.17339253235 Z M 2223.76295502005 1943.94139253235 C 2228.30695502004 1939.36539253235 2230.57895502004 1932.94939253235 2230.57895502004 1924.69339253235 C 2230.57895502004 1916.37339253235 2228.29095502004 1909.87739253235 2223.71495502004 1905.20539253235 C 2219.13895502004 1900.53339253235 2212.56295502004 1898.19739253235 2203.98695502005 1898.19739253235 L 2191.89095502005 1898.19739253235 L 2191.89095502005 1950.80539253235 L 2203.98695502005 1950.80539253235 C 2212.62695502005 1950.80539253235 2219.21895502005 1948.51739253235 2223.76295502005 1943.94139253235 Z M 2295.37895502005 1943.12539253235 L 2266.19495502004 1943.12539253235 L 2260.81895502005 1958.00539253235 L 2251.60295502005 1958.00539253235 L 2275.79495502005 1891.47739253235 L 2285.87495502005 1891.47739253235 L 2309.97095502005 1958.00539253235 L 2300.75495502004 1958.00539253235 L 2295.37895502005 1943.12539253235 Z M 2292.88295502005 1936.02139253235 L 2280.78695502004 1902.22939253235 L 2268.69095502004 1936.02139253235 L 2292.88295502005 1936.02139253235 Z M 2372.17895502005 1891.09339253235 L 2350.38695502004 1932.75739253235 L 2350.38695502004 1958.00539253235 L 2341.65095502005 1958.00539253235 L 2341.65095502005 1932.75739253235 L 2319.76295502005 1891.09339253235 L 2329.45895502005 1891.09339253235 L 2345.97095502005 1924.98139253235 L 2362.48295502004 1891.09339253235 L 2372.17895502005 1891.09339253235 Z"/></svg>